<svg xmlns="http://www.w3.org/2000/svg" width="36" height="36" id="document"><g transform="translate(-22 -257.362)"><rect width="36" height="36" x="22" y="257.362" fill="#fcb74d" style="isolation:auto;mix-blend-mode:normal" fill-opacity=".894" color="#000" opacity=".97" overflow="visible" rx="3" ry="3"></rect><g opacity=".97"><path d="M2 1023.362v26h20v-21h-5v-5z" color="#000" opacity=".15" overflow="visible" style="isolation:auto;mix-blend-mode:normal" transform="translate(25 -760)"></path><path fill="#78c8f0" style="isolation:auto;mix-blend-mode:normal" d="M3 2v26h20V7l-5-5Z" color="#000" overflow="visible" transform="translate(25 260.362)"></path><path fill="#4bbfeb" fill-rule="evenodd" d="M43 262.362v5h5"></path><path fill="none" stroke="#2b4255" d="M30 266.862h11m-11 3h14m-14 3h14"></path><path style="isolation:auto;mix-blend-mode:normal" d="M102 1109.861c.831 0 1.5.67 1.5 1.5v23.5l-2 4v-29h.5zm-1 0c-.831 0-1.5.67-1.5 1.5v23.5l2 4v-29h-.5z" color="#000" opacity=".15" overflow="visible" transform="rotate(45 1091.824 630.358)"></path><path style="isolation:auto;mix-blend-mode:normal" fill="#f05542" d="M100.5 1112.861h4v22h-4z" color="#000" overflow="visible" transform="rotate(45 1091.824 630.358)"></path><path fill="#e9eded" style="isolation:auto;mix-blend-mode:normal" d="M100.5 1134.861h4l-2 4zm0-22v-1.5c0-.83.669-1.5 1.5-1.5h1c.831 0 1.5.67 1.5 1.5v1.5z" color="#000" overflow="visible" transform="rotate(45 1091.824 630.358)"></path><path fill="none" stroke="#34485c" d="m35.528 287.538 15.557-15.556"></path><path fill="#34485c" d="m102 1137.861.5 1 .5-1h-1zM100.5 1112.862h4v1h-4z" color="#000" overflow="visible" style="isolation:auto;mix-blend-mode:normal" transform="rotate(45 1091.824 630.358)"></path></g></g></svg>